<?xml version="1.0" standalone="no"?>
<!DOCTYPE svg PUBLIC "-//W3C//DTD SVG 20010904//EN"
 "http://www.w3.org/TR/2001/REC-SVG-20010904/DTD/svg10.dtd">
<svg version="1.0" xmlns="http://www.w3.org/2000/svg"
 width="512.000000pt" height="512.000000pt" viewBox="0 0 512.000000 512.000000"
 preserveAspectRatio="xMidYMid meet">

<g transform="translate(0.000000,512.000000) scale(0.100000,-0.100000)"
fill="#000000" stroke="none">
<path d="M645 4850 c-95 -25 -138 -44 -217 -96 -121 -81 -212 -201 -265 -349
l-28 -80 -3 -1830 c-3 -2045 -8 -1902 68 -2060 84 -174 247 -308 437 -361 64
-18 122 -19 906 -22 l837 -3 0 881 0 880 -295 0 -295 0 0 345 0 345 295 0 295
0 0 269 c0 148 5 314 10 370 41 398 274 667 645 747 101 22 312 28 525 15 102
-6 195 -14 208 -17 l22 -6 0 -304 0 -304 -197 0 c-109 0 -227 -5 -263 -11 -89
-14 -155 -52 -188 -108 -43 -73 -52 -143 -52 -408 l0 -243 340 0 c187 0 340
-2 340 -4 0 -8 -80 -610 -86 -648 l-6 -38 -294 0 -294 0 0 -880 0 -881 643 3
c719 4 686 1 847 80 157 77 291 241 346 423 18 57 19 156 22 1855 2 1296 0
1817 -8 1874 -40 278 -235 497 -506 566 -75 20 -119 20 -1898 19 -1744 0
-1824 -1 -1891 -19z"/>
</g>
</svg>
