<?xml version="1.0" standalone="no"?>
<!DOCTYPE svg PUBLIC "-//W3C//DTD SVG 20010904//EN"
 "http://www.w3.org/TR/2001/REC-SVG-20010904/DTD/svg10.dtd">
<svg version="1.0" xmlns="http://www.w3.org/2000/svg"
 width="512.000000pt" height="512.000000pt" viewBox="0 0 512.000000 512.000000"
 preserveAspectRatio="xMidYMid meet">

<g transform="translate(0.000000,512.000000) scale(0.100000,-0.100000)"
fill="#000000" stroke="none">
<path d="M1895 4820 c-299 -6 -447 -13 -515 -24 -300 -49 -551 -177 -766 -391
-246 -245 -388 -553 -409 -885 -25 -387 -20 -2048 6 -2268 60 -510 410 -954
895 -1137 86 -32 168 -54 274 -71 237 -39 2209 -38 2440 2 548 93 984 494
1121 1031 48 191 52 290 52 1353 0 1058 -3 1141 -53 1334 -133 520 -540 908
-1074 1022 -39 8 -156 19 -261 24 -292 13 -1241 19 -1710 10z m1370 -450 c333
-6 457 -12 510 -24 371 -81 642 -343 737 -711 18 -73 21 -128 31 -648 7 -399
7 -735 0 -1135 -10 -519 -13 -574 -31 -647 -94 -366 -363 -627 -732 -711 -96
-22 -870 -36 -1570 -29 -618 7 -754 14 -868 45 -315 88 -563 335 -657 656 -38
128 -46 355 -46 1254 0 899 8 1126 46 1254 101 345 371 596 720 672 128 27
1067 40 1860 24z"/>
<path d="M3775 3951 c-164 -43 -253 -207 -198 -367 25 -73 104 -148 178 -170
136 -39 271 19 332 143 86 177 -30 380 -228 397 -30 3 -67 1 -84 -3z"/>
<path d="M2495 3654 c-140 -19 -192 -30 -275 -56 -438 -139 -766 -514 -845
-962 -19 -114 -19 -318 0 -432 89 -509 500 -915 1015 -1005 93 -16 301 -17
396 -1 511 85 914 471 1019 979 90 433 -82 920 -422 1193 -175 141 -335 218
-541 260 -95 19 -287 33 -347 24z m304 -474 c288 -81 505 -312 565 -602 52
-250 -21 -507 -197 -694 -103 -111 -222 -183 -373 -226 -103 -29 -284 -31
-389 -4 -280 72 -502 292 -576 572 -29 109 -29 279 0 388 80 302 316 521 626
582 92 18 248 11 344 -16z"/>
</g>
</svg>
