<?xml version="1.0" standalone="no"?>
<!DOCTYPE svg PUBLIC "-//W3C//DTD SVG 20010904//EN"
 "http://www.w3.org/TR/2001/REC-SVG-20010904/DTD/svg10.dtd">
<svg version="1.0" xmlns="http://www.w3.org/2000/svg"
 width="512.000000pt" height="512.000000pt" viewBox="0 0 512.000000 512.000000"
 preserveAspectRatio="xMidYMid meet">

<g transform="translate(0.000000,512.000000) scale(0.100000,-0.100000)"
fill="#000000" stroke="none">
<path d="M641 4819 c-224 -44 -402 -182 -497 -384 -68 -146 -64 -33 -64 -2015
0 -1982 -4 -1869 64 -2015 82 -175 222 -299 411 -363 l80 -27 1820 -3 c2034
-3 1905 -7 2060 68 169 82 290 221 353 405 l27 80 0 1855 0 1855 -27 80 c-63
184 -184 323 -353 405 -154 74 -26 70 -2032 69 -989 -1 -1818 -5 -1842 -10z
m839 -865 c80 -36 170 -130 200 -211 29 -76 25 -213 -8 -286 -29 -65 -113
-151 -181 -184 -50 -25 -67 -28 -161 -28 -94 0 -111 3 -160 27 -190 93 -269
323 -175 507 46 90 154 176 252 201 63 16 166 4 233 -26z m2051 -927 c265 -69
422 -221 495 -477 17 -60 19 -122 22 -836 l3 -772 -27 -21 c-26 -20 -37 -21
-326 -21 -305 0 -327 2 -355 39 -9 12 -12 166 -13 641 0 375 -4 651 -10 690
-16 98 -46 149 -105 179 -44 23 -62 26 -155 26 -167 0 -252 -42 -304 -148 -53
-108 -56 -142 -56 -780 l0 -589 -29 -29 -29 -29 -299 0 c-325 0 -328 1 -352
57 -8 21 -11 287 -9 1015 l3 986 24 26 24 26 303 0 c256 0 305 -2 318 -15 8
-8 18 -40 21 -70 l7 -55 42 36 c62 54 189 112 291 134 132 29 381 23 516 -13z
m-1887 -28 c14 -7 30 -25 36 -42 7 -20 10 -350 10 -1004 0 -1047 1 -1015 -49
-1043 -12 -6 -132 -10 -315 -10 l-295 0 -28 24 -28 24 -3 989 c-1 543 0 998 3
1010 3 12 15 32 27 43 21 19 34 20 319 20 202 0 306 -4 323 -11z"/>
</g>
</svg>
