<?xml version="1.0" standalone="no"?>
<!DOCTYPE svg PUBLIC "-//W3C//DTD SVG 20010904//EN"
 "http://www.w3.org/TR/2001/REC-SVG-20010904/DTD/svg10.dtd">
<svg version="1.0" xmlns="http://www.w3.org/2000/svg"
 width="512.000000pt" height="512.000000pt" viewBox="0 0 512.000000 512.000000"
 preserveAspectRatio="xMidYMid meet">

<g transform="translate(0.000000,512.000000) scale(0.100000,-0.100000)"
fill="#000000" stroke="none">
<path d="M323 4490 c-66 -14 -144 -55 -196 -105 -26 -25 -47 -49 -47 -54 0
-12 2481 -2076 2492 -2073 5 1 565 466 1243 1033 l1235 1031 -26 33 c-30 40
-113 98 -174 122 -43 17 -163 18 -2265 19 -1221 1 -2239 -2 -2262 -6z"/>
<path d="M0 2487 c0 -962 4 -1503 10 -1538 31 -163 165 -292 330 -318 91 -15
4349 -15 4440 0 166 26 300 156 330 319 7 36 9 566 8 1532 l-3 1478 -1269
-1060 c-698 -583 -1273 -1060 -1278 -1060 -5 0 -576 474 -1270 1053 -694 578
-1270 1058 -1280 1065 -17 13 -18 -48 -18 -1471z"/>
</g>
</svg>
