<?xml version="1.0" standalone="no"?>
<!DOCTYPE svg PUBLIC "-//W3C//DTD SVG 20010904//EN"
 "http://www.w3.org/TR/2001/REC-SVG-20010904/DTD/svg10.dtd">
<svg version="1.0" xmlns="http://www.w3.org/2000/svg"
 width="512.000000pt" height="374.000000pt" viewBox="0 0 512.000000 374.000000"
 preserveAspectRatio="xMidYMid meet">

<g transform="translate(0.000000,374.000000) scale(0.100000,-0.100000)"
fill="#000000" stroke="none">
<path d="M1480 3111 c-70 -22 -147 -86 -181 -152 -10 -20 -23 -65 -29 -100
-14 -87 -14 -2001 0 -2088 6 -35 19 -80 29 -100 25 -47 85 -107 136 -134 l40
-22 1089 -3 1088 -2 52 23 c73 33 121 79 153 145 l28 57 0 1080 c0 1077 0
1080 -21 1126 -31 67 -78 114 -146 149 l-61 30 -1076 -1 c-592 0 -1087 -4
-1101 -8z m957 -746 c126 -167 233 -304 238 -304 6 0 136 137 290 304 l280
304 79 1 c73 0 78 -1 65 -17 -8 -10 -155 -170 -326 -355 -172 -185 -313 -340
-313 -343 0 -3 166 -227 369 -498 l370 -492 -262 -3 c-144 -1 -267 0 -274 2
-7 3 -121 150 -254 328 -133 178 -245 326 -248 331 -4 4 -147 -143 -317 -327
l-309 -335 -79 -1 c-73 0 -78 1 -65 17 8 10 158 173 333 363 176 190 328 355
339 367 l20 22 -328 438 c-181 241 -339 453 -353 471 l-24 32 271 0 271 0 227
-305z"/>
<path d="M1912 2542 c1 -5 248 -336 548 -735 l545 -727 123 0 c96 0 121 3 116
13 -5 6 -251 336 -548 732 l-539 720 -125 3 c-68 1 -122 -1 -120 -6z"/>
</g>
</svg>
